<svg width="108" height="108" viewBox="0 0 302.59 300.98" xmlns="http://www.w3.org/2000/svg">
    <g transform="translate(63.5439, 63.670216) scale(0.58, 0.57691395)">
        <path d="M180.57,300.98l-129.99,-38.91l-50.58,-161.05l129.98,38.91l50.59,161.05z"
            fill="#05a656" />
        <path d="M129.98,139.93l-129.98,-38.91l132.67,-101.02l129.98,38.91l-132.67,101.02z"
            fill="#40a635" />
        <path d="M180.57,300.98l122.02,-107.76l-39.94,-154.31l-132.67,101.02l50.59,161.05z"
            fill="#015a2f" />
        <path d="M238.59,125.69a20.92,16.8 95.42,1 0,3.95 -41.65a20.92,16.8 95.42,1 0,-3.95 41.65z"
            fill="#ffffff" />
        <path d="M214.32,184.92a20.92,16.8 95.42,1 0,3.95 -41.65a20.92,16.8 95.42,1 0,-3.95 41.65z"
            fill="#ffffff" />
        <path d="M190.06,244.16a20.92,16.8 95.42,1 0,3.95 -41.65a20.92,16.8 95.42,1 0,-3.95 41.65z"
            fill="#ffffff" />
        <path d="M122.43,35.01a11.88,16.7 67.8,1 0,30.92 -12.62a11.88,16.7 67.8,1 0,-30.92 12.62z"
            fill="#ffffff" />
        <path d="M163.34,55.88a11.88,16.7 67.8,1 0,30.92 -12.62a11.88,16.7 67.8,1 0,-30.92 12.62z"
            fill="#ffffff" />
        <path d="M94.07,64.15a11.88,16.7 67.8,1 0,30.92 -12.62a11.88,16.7 67.8,1 0,-30.92 12.62z"
            fill="#ffffff" />
        <path d="M134.97,85.02a11.88,16.7 67.8,1 0,30.92 -12.62a11.88,16.7 67.8,1 0,-30.92 12.62z"
            fill="#ffffff" />
        <path d="M65.71,93.27a11.88,16.7 67.8,1 0,30.92 -12.62a11.88,16.7 67.8,1 0,-30.92 12.62z"
            fill="#ffffff" />
        <path d="M106.61,114.14a11.88,16.7 67.8,1 0,30.92 -12.62a11.88,16.7 67.8,1 0,-30.92 12.62z"
            fill="#ffffff" />
        <path d="M96.78,178.97a11.87,18.32 119.32,1 0,11.63 -20.7a11.87,18.32 119.32,1 0,-11.63 20.7z"
            fill="#ffffff" />
        <path d="M75.35,251.25a11.87,18.32 119.32,1 0,11.63 -20.7a11.87,18.32 119.32,1 0,-11.63 20.7z"
            fill="#ffffff" />
    </g>

</svg>